@startuml
class Grain <<sealed>> {
    + <<override>> IsEnabledAndSupported(context:PostProcessRenderContext) : bool
}
class GrainRenderer <<sealed>> {
    + <<override>> Render(context:PostProcessRenderContext) : void
    + <<override>> Release() : void
}
class "PostProcessEffectRenderer`1"<T> {
}
PostProcessEffectSettings <|-- Grain
Grain o-> "colored" BoolParameter
Grain o-> "intensity" FloatParameter
Grain o-> "size" FloatParameter
Grain o-> "lumContrib" FloatParameter
"PostProcessEffectRenderer`1" "<Grain>" <|-- GrainRenderer
@enduml
