@startuml
class TemporalAntialiasing <<sealed>> {
    + jitterSpread : float = 0.75f
    + sharpness : float = 0.25f
    + stationaryBlending : float = 0.95f
    + motionBlending : float = 0.85f
    + sampleIndex : int <<get>>
    + IsSupported() : bool
    + GetJitteredProjectionMatrix(camera:Camera) : Matrix4x4
    + ConfigureJitteredProjectionMatrix(context:PostProcessRenderContext) : void
    + ConfigureStereoJitteredProjectionMatrices(context:PostProcessRenderContext) : void
}
class "Func`3"<T1,T2,T3> {
}
enum Pass {
    SolverDilate,
    SolverNoDilate,
}
TemporalAntialiasing --> "jitteredMatrixFunc<Camera,Vector2,Matrix4x4>" "Func`3"
TemporalAntialiasing --> "jitter" Vector2
TemporalAntialiasing +-- Pass
@enduml
